<svg width="82" height="82" viewBox="0 0 82 82" fill="none" xmlns="http://www.w3.org/2000/svg">
<circle cx="41" cy="41" r="41" fill="black"/>
<circle cx="41" cy="41" r="41" fill="black" fill-opacity="0.2"/>
<path d="M52.1881 22H45.955V54.7065H52.1881V22Z" fill="white"/>
<path d="M33.0587 54.7123C31.8722 54.7123 31.6559 54.3414 31.6476 52.3365C31.6413 50.7392 30.3134 49.4422 28.6912 49.4494C27.07 49.4555 25.7545 50.7628 25.7608 52.361C25.768 53.9583 27.0949 55.2553 28.7172 55.2481C31.2992 55.2368 31.6205 55.1241 31.6455 57.2818V60.8563H45.9544V54.7133L33.0587 54.7123Z" fill="white"/>
<path d="M33.0587 54.7122C31.8722 54.7122 31.6559 54.3413 31.6476 52.3363C31.6413 50.7391 30.3134 49.4421 28.6912 49.4492C27.07 49.4554 25.7545 50.7627 25.7608 52.3609C25.768 53.9581 27.0949 55.2551 28.7172 55.248C31.2992 55.2367 31.6205 55.124 31.6455 57.2816V60.8562H45.9544V54.7132L33.0587 54.7122Z" fill="#0064FF"/>
</svg>
